<svg xmlns="http://www.w3.org/2000/svg">

    <symbol id="github" viewBox="0 0 16 16">
        <path fill="white"
            d="M8 0C3.58 0 0 3.58 0 8c0 3.54 2.29 6.53 5.47 7.59.4.07.55-.17.55-.38
            0-.19-.01-.82-.01-1.49-2.01.37-2.53-.49-2.69-.94-.09-.23-.48-.94-.82-1.13
            -.28-.15-.68-.52-.01-.53.63-.01 1.08.58 1.23.82.72 1.21 1.87.87 2.33.66
            .07-.52.28-.87.5-1.07-1.78-.2-3.64-.89-3.64-3.95
            0-.87.31-1.59.82-2.15-.08-.2-.36-1.02.08-2.12
            0 0 .67-.21 2.2.82a7.65 7.65 0 0 1 4 0c1.53-1.04 2.2-.82 2.2-.82
            .44 1.1.16 1.92.08 2.12.51.56.82 1.27.82 2.15
            0 3.07-1.87 3.75-3.65 3.95.29.25.54.73.54 1.48
            0 1.07-.01 1.93-.01 2.2 0 .21.15.46.55.38A8.01 8.01 0 0 0 16 8
            c0-4.42-3.58-8-8-8z"/>
    </symbol>

    <symbol id="linkedin" viewBox="0 0 24 24">
        <path fill="#0A66C2"
            d="M4.98 3.5C4.98 4.88 3.86 6 2.48 6S0 4.88 0 3.5 1.12 1 2.48 1s2.5 1.12 2.5 2.5zM0 8h5v16H0V8zm7.5 0h4.8v2.2h.1c.67-1.27 2.3-2.6 4.74-2.6 5.06 0 6 3.33 6 7.66V24h-5v-7.5c0-1.8-.03-4.12-2.5-4.12-2.5 0-2.88 1.96-2.88 4V24h-5V8z"/>
    </symbol>

    <symbol id="instagram" viewBox="0 0 24 24">
        <path fill="#E4405F"
            d="M7 2C4.24 2 2 4.24 2 7v10c0 2.76 2.24 5 5 5h10c2.76 0 5-2.24 5-5V7c0-2.76-2.24-5-5-5H7zm0 2h10c1.65 0 3 1.35 3 3v10c0 1.65-1.35 3-3 3H7c-1.65 0-3-1.35-3-3V7c0-1.65 1.35-3 3-3zm5 3a5 5 0 100 10 5 5 0 000-10zm0 2a3 3 0 110 6 3 3 0 010-6zm5.5-.75a1.25 1.25 0 100 2.5 1.25 1.25 0 000-2.5z"/>
    </symbol>

    <symbol id="x" viewBox="0 0 24 24">
        <path fill="#FFFFFF"
            d="M18.901 1.153H22L15.233 8.889 23.2 22h-6.238l-4.886-6.99L5.95 22H2.85l7.241-8.274L.8 1.153h6.399l4.417 6.308L18.901 1.153zm-1.09 18.981h1.714L6.258 2.748H4.42z"/>
    </symbol>

    <symbol id="youtube" viewBox="0 0 24 24">
        <path fill="#e72f2f"
            d="M23.498 6.186a3.016 3.016 0 0 0-2.122-2.136C19.505 3.545 12 3.545 12 3.545s-7.505 0-9.377.505A3.017 3.017 0 0 0 .502 6.186C0 8.07 0 12 0 12s0 3.93.502 5.814a3.016 3.016 0 0 0 2.122 2.136c1.871.505 9.376.505 9.376.505s7.505 0 9.377-.505a3.015 3.015 0 0 0 2.122-2.136C24 15.93 24 12 24 12s0-3.93-.502-5.814zM9.545 15.568V8.432L15.818 12l-6.273 3.568z"/>
    </symbol>

    <symbol id="react" viewBox="0 0 24 24">
        <path fill="#25e0ee"
            d="M23.498 6.186a3.016 3.016 0 0 0-2.122-2.136C19.505 3.545 12 3.545 12 3.545s-7.505 0-9.377.505A3.017 3.017 0 0 0 .502 6.186C0 8.07 0 12 0 12s0 3.93.502 5.814a3.016 3.016 0 0 0 2.122 2.136c1.871.505 9.376.505 9.376.505s7.505 0 9.377-.505a3.015 3.015 0 0 0 2.122-2.136C24 15.93 24 12 24 12s0-3.93-.502-5.814zM9.545 15.568V8.432L15.818 12l-6.273 3.568z"/>
    </symbol>

</svg>